<svg width="67" height="74" viewBox="0 0 67 74" fill="none" xmlns="http://www.w3.org/2000/svg">
<path d="M63.9688 1.49275H3.03125C1.90942 1.49275 1 2.4917 1 3.72396V70.6603C1 71.8926 1.90942 72.8915 3.03125 72.8915H63.9688C65.0906 72.8915 66 71.8926 66 70.6603V3.72396C66 2.4917 65.0906 1.49275 63.9688 1.49275Z" stroke="#353C3F" stroke-width="2" stroke-linecap="round" stroke-linejoin="round"/>
<path d="M20.4995 22.9123H7.49951V37.1921H20.4995V22.9123Z" stroke="#353C3F" stroke-width="2" stroke-linecap="round" stroke-linejoin="round"/>
<path d="M33.5005 22.9123H20.5005V37.1921H33.5005V22.9123Z" stroke="#353C3F" stroke-width="2" stroke-linecap="round" stroke-linejoin="round"/>
<path d="M46.5 22.9123H33.5V37.1921H46.5V22.9123Z" stroke="#353C3F" stroke-width="2" stroke-linecap="round" stroke-linejoin="round"/>
<path d="M59.4995 22.9123H46.4995V37.1921H59.4995V22.9123Z" stroke="#353C3F" stroke-width="2" stroke-linecap="round" stroke-linejoin="round"/>
<path d="M59.4995 37.1922H46.4995V51.4719H59.4995V37.1922Z" stroke="#353C3F" stroke-width="2" stroke-linecap="round" stroke-linejoin="round"/>
<path d="M46.5 37.1922H33.5V51.4719H46.5V37.1922Z" stroke="#353C3F" stroke-width="2" stroke-linecap="round" stroke-linejoin="round"/>
<path d="M33.5005 37.1922H20.5005V51.4719H33.5005V37.1922Z" stroke="#353C3F" stroke-width="2" stroke-linecap="round" stroke-linejoin="round"/>
<path d="M20.4995 37.1922H7.49951V51.4719H20.4995V37.1922Z" stroke="#353C3F" stroke-width="2" stroke-linecap="round" stroke-linejoin="round"/>
<path d="M20.4995 51.472H7.49951V65.7517H20.4995V51.472Z" stroke="#353C3F" stroke-width="2" stroke-linecap="round" stroke-linejoin="round"/>
<path d="M33.5005 51.472H20.5005V65.7517H33.5005V51.472Z" stroke="#353C3F" stroke-width="2" stroke-linecap="round" stroke-linejoin="round"/>
<path d="M46.5 51.472H33.5V65.7517H46.5V51.472Z" stroke="#353C3F" stroke-width="2" stroke-linecap="round" stroke-linejoin="round"/>
<path fill-rule="evenodd" clip-rule="evenodd" d="M13.9995 1.49276H20.4995V5.0627C20.4995 7.03432 19.0408 8.63264 17.2495 8.63264C15.4546 8.63264 13.9995 7.03031 13.9995 5.0627V1.49276Z" stroke="#353C3F" stroke-width="2" stroke-linecap="round" stroke-linejoin="round"/>
<path fill-rule="evenodd" clip-rule="evenodd" d="M46.4995 1.49276H52.9995V5.0627C52.9995 7.03432 51.5408 8.63264 49.7495 8.63264C47.9546 8.63264 46.4995 7.03031 46.4995 5.0627V1.49276Z" stroke="#353C3F" stroke-width="2" stroke-linecap="round" stroke-linejoin="round"/>
</svg>
